PathFileType	4	(X/Y/Z)	c:/Users/goper/Files/vsCode/490R/osim_files/C03/C03_SSW_01.trc
DataRate	CameraRate	NumFrames	NumMarkers	Units                	OrigDataRate	OrigDataStartFrame	OrigNumFrames
250.00	250.00	6	36	mm	250.0	1170	2339
                Frame#	Time	LPSIS			LASIS			LTH1			LTH2			LTH3			LTH4			LLFE			LMFE			LSH1			LSH2			LSH3			LSH4			LLMAL			LMMAL			LCAL			LMTP5			LTOE			LMTP1			RPSIS			RASIS			RTH1			RTH2			RTH3			RTH4			RLFE			RMFE			RSH1			RSH2			RSH3			RSH4			RLMAL			RMMAL			RCAL			RMTP1			RTOE			RMTP5		
		X1	Y1	Z1	X2	Y2	Z2	X3	Y3	Z3	X4	Y4	Z4	X5	Y5	Z5	X6	Y6	Z6	X7	Y7	Z7	X8	Y8	Z8	X9	Y9	Z9	X10	Y10	Z10	X11	Y11	Z11	X12	Y12	Z12	X13	Y13	Z13	X14	Y14	Z14	X15	Y15	Z15	X16	Y16	Z16	X17	Y17	Z17	X18	Y18	Z18	X19	Y19	Z19	X20	Y20	Z20	X21	Y21	Z21	X22	Y22	Z22	X23	Y23	Z23	X24	Y24	Z24	X25	Y25	Z25	X26	Y26	Z26	X27	Y27	Z27	X28	Y28	Z28	X29	Y29	Z29	X30	Y30	Z30	X31	Y31	Z31	X32	Y32	Z32	X33	Y33	Z33	X34	Y34	Z34	X35	Y35	Z35	X36	Y36	Z36

1170	4.67600	950.92834	1026.24487	296.98001	769.30243	977.78552	344.36139	810.61224	622.94733	379.95001	793.12317	563.40955	376.18457	738.41821	637.77496	397.08777	729.74274	577.09503	391.11359	765.31451	495.07800	381.36160	744.13586	473.98663	272.09875	938.23938	438.45334	369.62488	973.40833	406.71255	366.32559	902.41443	393.60016	389.38245	940.59698	366.75296	382.89484	1079.04675	280.63156	354.75473	1048.06763	253.11003	286.06778	1131.01379	321.32996	304.64066	1095.63525	136.47116	393.27777	1057.41370	108.68645	348.60300	1072.70764	119.92198	304.70410	938.72290	1028.28369	184.44109	761.98193	998.39819	139.00381	876.45660	611.37781	118.91627	875.84399	550.92548	134.26797	811.53882	611.49768	108.31554	801.83014	553.03693	117.45776	804.41382	483.17285	138.40726	830.46698	501.60663	246.83185	876.07355	290.55646	136.93654	867.65863	244.17188	142.62531	813.75806	292.20856	130.88403	816.22485	248.91055	136.65590	812.79047	97.18569	174.64737	798.64191	108.15895	253.16953	876.69550	65.71960	214.63707	676.18085	54.68862	270.63370	647.39136	71.84765	232.06859	692.93573	39.18716	164.60928
1171	4.68000	946.02222	1027.24915	296.36270	764.38776	979.19305	343.96323	801.89459	624.24878	379.68307	783.88501	564.89972	375.73209	728.76068	639.03369	395.55521	720.42859	579.14484	390.14230	755.10382	497.00919	380.32874	734.96448	475.98013	271.19717	927.91034	439.67520	368.88812	962.17627	407.47372	365.75113	891.06134	394.80505	388.56012	930.71301	368.86002	383.09750	1068.22839	280.98206	354.24057	1036.96594	253.75760	285.39267	1120.81580	320.42969	304.67398	1080.68750	136.11272	393.04715	1043.26282	108.90314	348.51920	1059.15247	119.97405	304.47552	934.17627	1029.09448	183.87207	757.05902	998.48102	138.39497	873.82806	611.95764	119.15660	873.85974	551.48138	134.41052	809.43951	613.02106	106.40950	799.87872	553.12183	117.51907	803.07678	483.30121	138.52112	829.88483	502.32462	247.17952	875.36108	291.04846	137.18315	867.15387	244.62762	142.81032	813.34088	292.29242	131.24425	815.65704	249.19214	136.74478	812.69263	97.26220	174.69182	798.49017	108.27247	253.18343	876.63385	65.77200	214.66702	676.15405	54.64823	270.60962	647.32721	71.78890	232.06290	692.91400	39.17453	164.59740
1172	4.68400	941.09302	1028.16138	295.75412	759.81360	980.04205	343.62524	793.32715	625.32709	379.83752	774.28668	565.97803	375.06851	720.22882	640.78778	394.75455	711.08020	581.50415	388.86823	744.91809	498.91754	379.29605	725.12677	478.25592	270.01758	917.50189	440.79239	368.02078	951.77039	408.39954	365.14850	881.10950	396.39557	387.78885	919.79852	369.87790	382.44189	1056.09338	280.51297	353.82022	1025.65100	253.98701	284.71085	1110.23083	319.11176	304.93246	1066.53381	136.02148	393.22632	1028.99426	109.38177	347.83664	1045.56262	119.90034	304.15558	928.99854	1029.48584	183.21391	751.79797	998.69757	137.73755	871.48560	612.54175	119.32836	871.80182	552.00928	134.61638	807.10168	613.14215	106.45959	797.85101	553.14362	117.58038	801.44775	483.41153	138.70647	828.21179	502.74701	247.38681	874.68518	291.51144	137.40852	866.47882	245.13472	143.29166	812.50671	292.53247	131.41707	815.04767	249.44604	136.87120	812.59686	97.32584	174.75926	798.30487	108.35025	253.19244	877.59845	66.65557	214.38643	676.08221	54.58386	270.56949	647.23804	71.71847	232.03423	692.86932	39.12119	164.56773
1173	4.68800	936.18701	1029.06934	295.20700	754.36145	981.30951	343.13550	784.86243	626.48279	379.52969	765.64227	567.86951	374.97754	710.77856	643.27283	394.49518	701.90692	583.61981	387.76117	734.76526	500.75452	377.99261	715.40649	480.54984	268.85083	907.36505	441.80167	367.39545	941.65149	409.35358	364.25089	870.16779	397.54782	387.24884	908.98755	370.80716	381.73431	1045.24805	280.53210	353.44080	1014.28925	254.15958	284.14056	1099.75366	317.89761	305.07498	1052.46790	135.79822	393.02036	1014.77521	109.61221	347.14023	1031.96533	119.73106	303.76846	923.99268	1029.94397	182.60022	748.63995	998.49298	138.19290	869.02417	613.03247	119.46760	869.80835	552.58655	134.83533	804.49811	612.95526	106.55780	795.76349	553.20361	117.72072	800.17145	483.54272	138.54758	826.36908	503.13058	247.58794	873.90692	291.95398	137.65411	865.87781	245.56421	143.53717	811.66412	292.90381	131.34482	814.55969	249.65144	136.99690	812.53119	97.43304	174.83383	798.13245	108.46235	253.24600	876.60571	65.91402	214.72986	676.05267	54.52235	270.52295	647.15930	71.66484	232.01932	692.83160	39.08238	164.53874
1174	4.69200	931.26709	1029.95190	294.69687	749.28143	982.01300	342.78693	776.39355	627.53888	379.24692	756.39685	569.10907	374.42542	703.16693	646.33020	393.93979	692.94757	585.92529	386.78040	725.15436	502.86176	377.20740	705.89429	482.78104	267.74881	897.09607	442.54974	366.55307	931.33569	409.90512	363.62463	859.61523	398.72180	386.42523	898.27667	371.57999	381.05017	1032.84192	279.52271	353.11264	1002.74286	254.06862	283.53156	1089.28662	316.52051	305.25363	1037.37891	134.99950	392.69351	1000.45111	109.66621	346.51996	1018.20990	119.44688	303.41693	919.15771	1030.40283	182.07159	744.19916	998.51141	137.97264	866.55719	613.45337	119.71177	867.70953	553.09674	135.11139	801.73187	612.46808	106.73359	793.69275	553.25647	117.84179	798.15417	483.71143	138.96065	824.38953	503.49515	247.80681	873.20221	292.48111	137.96402	865.26361	245.99939	143.79260	810.92230	293.12445	131.50337	814.01550	249.86641	137.16687	812.42017	97.48280	174.92870	797.94269	108.56076	253.32663	876.55164	65.98714	214.76048	676.02448	54.45757	270.49402	647.08795	71.58522	232.00635	692.84521	39.04169	164.53404
1175	4.69600	926.35693	1030.76086	294.23935	745.11652	983.00580	342.79700	768.06244	628.64630	379.00299	747.59418	570.81586	373.98694	694.04504	647.67603	392.93301	684.06757	588.20984	385.73218	715.40948	504.86282	376.19183	696.39655	485.29510	266.83017	887.04388	443.15323	365.89774	920.52692	410.05490	363.40286	848.48474	399.07590	384.91699	887.63232	372.28024	380.36182	1021.24011	278.95377	352.76453	991.24463	253.88365	282.95654	1079.04968	315.25272	305.27386	1022.86206	134.32947	392.47885	986.02728	109.20386	346.32315	1004.56769	119.00983	303.01672	914.37598	1030.83936	181.59769	739.43469	998.70654	137.44273	864.16473	613.92084	119.90143	865.54126	553.49353	135.32076	799.41559	612.35614	106.63663	791.58282	553.31525	117.93767	796.57281	483.75388	139.24998	821.38788	503.47687	247.86861	872.38965	292.97952	138.29221	864.73853	246.47891	144.10045	810.32269	293.18753	131.86357	813.39386	250.08302	137.29506	812.32605	97.54963	175.03972	797.69409	108.63045	253.38322	877.45947	66.87558	214.46651	675.97461	54.35326	270.44876	647.00378	71.49767	231.99585	692.80682	38.99256	164.49196
